<svg width="40" height="40" viewBox="0 0 40 40" fill="none"
    xmlns="http://www.w3.org/2000/svg">
    <path d="M35.5556 40H4.44444C3.2657 40 2.13524 39.5317 1.30175 38.6983C0.468252 37.8648 0 36.7343 0 35.5556V4.44444C0 3.2657 0.468252 2.13524 1.30175 1.30175C2.13524 0.468252 3.2657 0 4.44444 0H35.5556C36.7343 0 37.8648 0.468252 38.6983 1.30175C39.5317 2.13524 40 3.2657 40 4.44444V35.5556C40 36.7343 39.5317 37.8648 38.6983 38.6983C37.8648 39.5317 36.7343 40 35.5556 40ZM4.44444 4.44444V35.5556H35.5556V4.44444H4.44444ZM33.3333 31.1111H6.66667L13.3333 22.2222L15.5556 24.4444L22.2222 15.5556L33.3333 31.1111ZM12.2222 17.7778C11.3382 17.7778 10.4903 17.4266 9.8652 16.8015C9.24008 16.1763 8.88889 15.3285 8.88889 14.4444C8.88889 13.5604 9.24008 12.7125 9.8652 12.0874C10.4903 11.4623 11.3382 11.1111 12.2222 11.1111C13.1063 11.1111 13.9541 11.4623 14.5792 12.0874C15.2044 12.7125 15.5556 13.5604 15.5556 14.4444C15.5556 15.3285 15.2044 16.1763 14.5792 16.8015C13.9541 17.4266 13.1063 17.7778 12.2222 17.7778Z" fill="#666666"/>
</svg>
