<svg width="24" height="26" viewBox="0 0 24 26" fill="none"
    xmlns="http://www.w3.org/2000/svg">
    <path fill-rule="evenodd" clip-rule="evenodd" d="M19 11.1164C19 6.94414 16.7616 4.04836 13.8654 3.17902C13.7605 2.90011 13.5948 2.64082 13.3695 2.42326C12.5997 1.67988 11.4003 1.67988 10.6305 2.42326C10.4057 2.64035 10.2402 2.89897 10.1353 3.17718C7.23535 4.04273 5 6.93218 5 11.1164C5 13.8236 4.46898 15.3406 3.48596 16.4399C3.32161 16.6237 2.87632 17.0448 2.57468 17.33L2.57465 17.33L2.5746 17.33C2.43192 17.465 2.32139 17.5695 2.28796 17.6041L2 17.9042V21.4093H8.08798C8.29383 22.5009 8.87009 23.2313 9.9122 23.8849C11.1941 24.689 12.8059 24.689 14.0878 23.8849C15.0075 23.308 15.6241 22.4215 15.8743 21.4093H22V17.9042L21.712 17.6041C21.6817 17.5725 21.5757 17.472 21.4371 17.3405L21.4371 17.3405L21.437 17.3405L21.4369 17.3404C21.1362 17.0552 20.6822 16.6248 20.5154 16.4375C19.5317 15.333 19 13.8141 19 11.1164ZM13.7367 21.4093H10.1786C10.3199 21.6795 10.5607 21.8834 10.954 22.1301C11.5963 22.533 12.4037 22.533 13.046 22.1301C13.3434 21.9436 13.5758 21.6968 13.7367 21.4093ZM19.0402 17.8255C19.2506 18.0618 19.7016 18.4937 20 18.7758V19.3536H4V18.7763C4.29607 18.4974 4.74843 18.0659 4.95849 17.831C6.29422 16.3372 7 14.321 7 11.1164C7 7.23098 9.33277 4.96199 12 4.96199C14.6597 4.96199 17 7.24269 17 11.1164C17 14.3107 17.706 16.3275 19.0402 17.8255Z" fill="#666666"/>
</svg>
